<svg xmlns="http://www.w3.org/2000/svg" width="56" height="56" fill="none" viewBox="0 0 56 56"><g clip-path="url(#clip0_1906_11047)"><path fill="#E4AC66" d="M8.28638 16.1223H20.8748C21.3278 16.1223 21.6951 15.755 21.6951 15.302C21.6951 14.849 21.3278 14.4817 20.8748 14.4817H8.28638C7.83335 14.4817 7.46606 14.849 7.46606 15.302C7.46606 15.755 7.83335 16.1223 8.28638 16.1223Z"/><path fill="#E4AC66" d="M8.28638 34.1692C7.83335 34.1692 7.46606 34.5365 7.46606 34.9895C7.46606 35.4425 7.83335 35.8098 8.28638 35.8098H21.9685C22.4216 35.8098 22.7888 35.4425 22.7888 34.9895C22.7888 34.5365 22.4216 34.1692 21.9685 34.1692H8.28638Z"/><path fill="#E4AC66" d="M32.8412 22.6848C33.2942 22.6848 33.6615 22.3175 33.6615 21.8645C33.6615 21.4115 33.2942 21.0442 32.8412 21.0442H23.8438C23.3907 21.0442 23.0234 21.4115 23.0234 21.8645C23.0234 22.3175 23.3907 22.6848 23.8438 22.6848H32.8412Z"/><path fill="#E4AC66" d="M8.06519 22.6848H20.0157C20.4687 22.6848 20.836 22.3175 20.836 21.8645C20.836 21.4115 20.4687 21.0442 20.0157 21.0442H8.06519C7.61215 21.0442 7.24487 21.4115 7.24487 21.8645C7.24487 22.3175 7.61215 22.6848 8.06519 22.6848Z"/><path fill="#E4AC66" d="M8.06519 29.2473H27.3109C27.764 29.2473 28.1312 28.88 28.1312 28.427C28.1312 27.974 27.764 27.6067 27.3109 27.6067H8.06519C7.61215 27.6067 7.24487 27.974 7.24487 28.427C7.24487 28.88 7.61215 29.2473 8.06519 29.2473Z"/><path fill="#E4AC66" d="M8.06519 42.3723H24.0297C24.4827 42.3723 24.85 42.005 24.85 41.552C24.85 41.099 24.4827 40.7317 24.0297 40.7317H8.06519C7.61215 40.7317 7.24487 41.099 7.24487 41.552C7.24487 42.005 7.61215 42.3723 8.06519 42.3723Z"/><path fill="#E4AC66" d="M55.9915 47.0993C55.9371 46.3413 55.5893 45.2255 54.2419 44.2109L47.1111 38.5736L48.7324 36.9532C49.0436 37.102 49.3928 37.1831 49.7609 37.1832H49.7619C50.5402 37.1832 51.3319 36.836 51.934 36.2308C51.9358 36.2289 51.9377 36.2269 51.9396 36.225C53.0621 35.0916 53.1931 33.3834 52.2303 32.4136L43.8748 24.0138C43.1281 23.2382 41.8498 23.1811 40.906 23.6922V16.5719C40.906 15.4766 40.4753 14.4468 39.6932 13.6722L27.1063 1.20538C26.3247 0.431227 25.2853 0.00488281 24.1795 0.00488281H5.24464C2.35277 0.00488281 0 2.33446 0 5.19779V8.23896C0 8.69199 0.367281 9.05927 0.820312 9.05927C1.27334 9.05927 1.64062 8.69199 1.64062 8.23896V5.19779C1.64062 3.23899 3.25741 1.6454 5.24464 1.6454L24.7365 1.71059V12.2527C24.7365 14.3387 26.4462 16.0358 28.5479 16.0358H39.2043L39.2656 25.612C39.0513 26.2807 39.0811 26.9799 39.3661 27.5585L31.9588 34.962C30.9816 34.4891 29.666 34.7425 28.7367 35.6673C27.6877 36.6758 27.3883 38.4429 28.4355 39.4858L36.815 47.8637C37.4484 48.5024 38.4186 48.6483 39.2656 48.3879C39.3352 49.4783 39.0259 50.5694 38.2199 51.3446C37.5303 52.0293 36.6133 52.4067 35.6321 52.3954L33.9523 52.3834C33.5712 51.6266 32.8803 51.0518 32.0468 50.8271V50.1326C32.0468 48.4741 30.6975 47.1248 29.039 47.1248H18.9386C17.28 47.1248 15.9308 48.4741 15.9308 50.1326V50.8271C15.1432 51.0395 14.4829 51.5643 14.091 52.26H5.24464C3.25741 52.26 1.64062 50.6664 1.64062 48.7076V12.0642C1.64062 11.6112 1.27334 11.2439 0.820312 11.2439C0.367281 11.2439 0 11.6112 0 12.0642V48.7076C0 51.571 2.35277 53.9006 5.24464 53.9006H13.7053V54.628C13.7053 55.3819 14.3186 55.9951 15.0725 55.9951H18.8125C19.2655 55.9951 19.6328 55.6279 19.6328 55.1748C19.6328 54.7218 19.2655 54.3545 18.8125 54.3545H15.346V53.7311C15.346 52.9772 15.9592 52.3639 16.7132 52.3639H31.2646C32.0185 52.3639 32.6318 52.9772 32.6318 53.7311V54.3545H22.6406C22.1876 54.3545 21.8203 54.7218 21.8203 55.1748C21.8203 55.6279 22.1876 55.9951 22.6406 55.9951H32.9053C33.6592 55.9951 34.2724 55.3819 34.2724 54.628V54.0263C34.3206 54.0265 35.6121 54.0362 35.6596 54.036C37.0645 54.036 38.3831 53.4945 39.3759 52.5087C40.3628 51.5289 40.9062 50.2274 40.9062 48.844V47.2497C41.5606 46.4153 41.7973 45.2811 41.3395 44.3423L42.9144 42.7682L48.5404 49.9211C50.5577 52.3726 52.611 52.126 54.6257 50.3057C55.5856 49.3436 56.0707 48.2048 55.9915 47.0993ZM18.9387 48.7655H29.0391C29.793 48.7655 30.4062 49.3787 30.4062 50.1326V50.7233H17.5715V50.1326C17.5715 49.3787 18.1848 48.7655 18.9387 48.7655ZM41.2292 25.4658C41.6582 25.0709 42.2286 24.7921 42.7113 25.1702L51.0667 33.57C51.386 33.8916 51.248 34.594 50.7714 35.0731C50.3302 35.4888 49.6814 35.7785 49.2227 35.303L46.1278 32.1918C45.8083 31.8706 45.2889 31.8692 44.9678 32.1887C44.6465 32.5082 44.6452 33.0276 44.9647 33.3487L47.4841 35.8815C45.3125 38.0497 42.4364 40.9262 40.2655 43.0964L33.2044 36.0367L40.4424 28.8024L42.2431 30.6128C42.5626 30.9341 43.082 30.9355 43.4032 30.6159C43.7244 30.2964 43.7257 29.777 43.4062 29.4558L41.0242 27.0612C40.5886 26.7183 40.7164 25.9965 41.2292 25.4658ZM26.3771 12.2528V2.7922L38.092 14.3952H28.5479C27.3509 14.3952 26.3771 13.4342 26.3771 12.2528ZM37.9745 46.7028L29.595 38.3248C29.2184 37.8413 29.4938 37.2686 29.8863 36.8378C30.4072 36.3271 31.1267 36.1927 31.4641 36.6164L39.7635 44.9141C40.1415 45.399 39.8625 45.9762 39.4674 46.406C38.9909 46.8823 38.2931 47.0208 37.9745 46.7028ZM53.4641 49.1473C52.222 50.3891 50.8784 50.3553 49.8362 48.9149L44.083 41.6004L45.9429 39.7415L53.2323 45.5042C54.6709 46.5501 54.7039 47.9018 53.4641 49.1473Z"/></g><defs><clipPath id="clip0_1906_11047"><rect width="56" height="56" fill="#fff"/></clipPath></defs></svg>