<svg xmlns="http://www.w3.org/2000/svg" width="56" height="56" fill="none" viewBox="0 0 56 56"><g clip-path="url(#clip0_715_8319)"><path fill="#E4AC66" d="M12.8818 19.0689C12.4553 18.6424 11.7618 18.6424 11.3354 19.0689C10.9077 19.4966 10.9077 20.1889 11.3354 20.6155C11.762 21.0432 12.4554 21.0432 12.8818 20.6155C13.3094 20.1889 13.3094 19.4966 12.8818 19.0689Z"/><path fill="#E4AC66" d="M27.6937 48.9692C28.1759 48.3161 28.4366 47.5291 28.4366 46.7017C28.4366 44.591 26.7194 42.8737 24.6085 42.8737H6.01542C4.99243 42.8737 4.03113 43.2718 3.30849 43.9946C2.58552 44.7174 2.18739 45.6787 2.18739 46.7017C2.18739 47.5492 2.46477 48.333 2.93279 48.9679C1.19121 49.8836 0 51.7102 0 53.8107V54.9045C0 55.5086 0.489782 55.9982 1.09375 55.9982H29.5302C30.1342 55.9982 30.624 55.5086 30.624 54.9045V53.8107C30.624 51.7112 29.434 49.8854 27.6937 48.9692ZM4.85517 45.5412C5.16481 45.2315 5.57693 45.0609 6.01542 45.0609H24.6085C25.5132 45.0609 26.2491 45.7969 26.2491 46.7015C26.2491 47.1401 26.0784 47.5521 25.7687 47.8618C25.459 48.1716 25.0469 48.3421 24.6084 48.3421H6.01542C5.11078 48.3421 4.3749 47.6061 4.3749 46.7016C4.3749 46.2631 4.54541 45.851 4.85517 45.5412ZM2.18739 53.8107C2.18739 52.0016 3.65937 50.5296 5.46854 50.5296H6.01542H24.6085H25.1554C26.9646 50.5296 28.4366 52.0016 28.4366 53.8107H2.18739Z"/><path fill="#E4AC66" d="M54.9823 45.9512C54.6109 45.3755 54.1677 44.8665 53.6649 44.4382L48.5543 39.9808C48.5145 39.9209 48.4683 39.864 48.4155 39.8112C48.3267 39.7225 48.2261 39.6532 48.1191 39.6014L45.0285 36.9058L30.7233 24.4271C31.3089 23.8149 31.6313 23.0144 31.6313 22.1631C31.6313 21.2862 31.29 20.462 30.6695 19.8417C30.3989 19.5714 30.0913 19.3589 29.7627 19.2032L31.0861 17.8798C31.456 17.9781 31.8361 18.0284 32.2165 18.0284C33.3366 18.0283 34.4568 17.602 35.3095 16.7493C36.1362 15.9227 36.5914 14.8241 36.5914 13.6556C36.5914 12.4872 36.1362 11.3885 35.3096 10.5619L26.0294 1.28189C25.2028 0.455342 24.104 0.00012207 22.9353 0.00012207C21.767 0.00012207 20.6686 0.455342 19.8421 1.28189C18.6998 2.42421 18.3238 4.04613 18.7116 5.50541L5.5073 18.7096C5.14242 18.6126 4.76278 18.5614 4.37493 18.5614C3.20593 18.5614 2.1077 19.0163 1.2818 19.8421C-0.424013 21.5479 -0.424013 24.3235 1.2818 26.0295L10.562 35.3097C11.415 36.1626 12.5353 36.5891 13.6556 36.5891C14.7761 36.5891 15.8964 36.1626 16.7494 35.3097C17.8917 34.1673 18.2678 32.5455 17.8799 31.0862L19.2006 29.7654C19.3593 30.0968 19.5747 30.4026 19.8422 30.67C20.462 31.2897 21.2859 31.6311 22.1626 31.6311C23.013 31.6311 23.8132 31.3092 24.4263 30.7243L39.6629 48.2302C39.7049 48.2958 39.7539 48.3583 39.8112 48.4156C39.8308 48.4352 39.8516 48.453 39.8722 48.4707L44.4125 53.6873C44.5254 53.8205 44.646 53.9515 44.7712 54.0768C46.0182 55.3233 47.6653 55.9998 49.3945 55.9998C49.6994 55.9998 50.007 55.9788 50.3152 55.9361C52.3746 55.6511 54.1544 54.4191 55.1981 52.5556C56.3414 50.5132 56.2563 47.9202 54.9823 45.9512ZM21.389 2.82867C21.8023 2.41535 22.3516 2.18763 22.9354 2.18763C23.5199 2.18763 24.0695 2.41535 24.4827 2.82867L33.763 12.1088C34.1763 12.5222 34.4039 13.0716 34.4039 13.6557C34.4039 14.2399 34.1763 14.7893 33.7629 15.2026C32.9103 16.0554 31.5227 16.0554 30.6702 15.2026L21.3896 5.92202C21.3893 5.92181 21.3892 5.9217 21.389 5.92148C20.5362 5.06879 20.5362 3.68136 21.389 2.82867ZM15.2026 33.7629C14.3497 34.6158 12.9617 34.616 12.1087 33.7629L2.82859 24.4828C1.97557 23.6298 1.97557 22.242 2.82859 21.3889C3.24115 20.9762 3.79043 20.7489 4.37493 20.7489C4.95933 20.7489 5.50828 20.9761 5.92073 21.3884L15.2025 30.6702C16.0554 31.5228 16.0554 32.9104 15.2026 33.7629ZM19.8076 26.0651L16.7493 29.1235L7.46817 19.8423L19.8421 7.46815L29.1232 16.7493L26.0593 19.8132C26.0494 19.8226 26.0396 19.8318 26.0292 19.8422L19.8453 26.0262C19.8325 26.0388 19.8201 26.0519 19.8076 26.0651ZM23.7129 28.3468C23.7107 28.349 23.7086 28.3511 23.7065 28.3532L22.9362 29.1235C22.7296 29.33 22.455 29.4437 22.1625 29.4437C21.8702 29.4437 21.5954 29.33 21.3889 29.1234C21.1821 28.9166 21.0682 28.6417 21.0682 28.3491C21.0682 28.0627 21.1775 27.7933 21.3758 27.5901L27.5884 21.3775C28.0142 20.9634 28.7026 20.9686 29.1234 21.3889C29.3301 21.5956 29.444 21.8706 29.444 22.1631C29.444 22.4555 29.3304 22.7297 29.1233 22.9363L28.3575 23.7021C28.3523 23.7072 28.347 23.7125 28.3419 23.7177L23.7129 28.3468ZM25.9779 29.1753L29.1745 25.9787L42.7088 37.7841L37.77 42.723L25.9779 29.1753ZM39.2095 44.3769L44.361 39.2254L46.0133 40.6666L40.649 46.031L39.2095 44.3769ZM53.2896 51.487C52.5837 52.7473 51.3903 53.5791 50.0154 53.7694C48.6436 53.9593 47.2957 53.5075 46.3177 52.5299C46.2336 52.4459 46.1531 52.3583 46.0781 52.2694C46.0746 52.2653 46.0711 52.2611 46.0675 52.2571L42.0884 47.685L47.6655 42.1077L52.232 46.0908C52.2353 46.0939 52.2388 46.0969 52.2425 46.0999C52.5842 46.3905 52.8875 46.7395 53.1449 47.1383C53.972 48.4164 54.03 50.1642 53.2896 51.487Z"/><path fill="#E4AC66" d="M20.6154 11.3352C20.1881 10.9081 19.4958 10.9081 19.0686 11.3352L14.428 15.9758C14.0009 16.4029 14.0009 17.0955 14.428 17.5225C14.6416 17.7361 14.9215 17.8428 15.2014 17.8428C15.4813 17.8428 15.7612 17.736 15.9748 17.5225L20.6154 12.8819C21.0425 12.4549 21.0425 11.7624 20.6154 11.3352Z"/></g><defs><clipPath id="clip0_715_8319"><rect width="56" height="56" fill="#fff"/></clipPath></defs></svg>