<svg xmlns="http://www.w3.org/2000/svg" width="97" height="97" fill="none" viewBox="0 0 97 97"><path fill="#EE6A51" d="M69.6061 19.6273L18.2316 44.9946C15.8607 46.1582 14.9007 49.0237 16.0643 51.3946L16.5007 52.2673L54.7843 61.6055C57.1552 62.1873 59.5988 60.98 60.5879 58.74L76.4425 22.6673L76.0061 21.7946C74.8425 19.4237 71.977 18.4491 69.6061 19.6273Z"/><path fill="#E4AC66" d="M16.4863 52.2675L33.1991 86.1147C33.8827 87.482 35.1336 88.3693 36.5154 88.6602L47.7736 59.9038L16.4863 52.2675Z"/><path fill="#E4AC66" d="M63.644 51.7588L60.5749 58.7406C59.5858 60.9806 57.1422 62.1879 54.7713 61.6061L47.7749 59.9042L36.5312 88.6461C37.5349 88.8497 38.6112 88.7624 39.6003 88.2679L90.9894 62.9006C92.124 62.3479 92.9094 61.4024 93.3313 60.3115L63.644 51.7588Z"/><path fill="#E4AC66" d="M93.1408 56.5006L76.428 22.6533L63.6426 51.7588L93.3153 60.297C93.7662 59.1042 93.7517 57.737 93.1408 56.5006Z"/><path fill="#8C9FFA" d="M36.5143 28.5002C42.1054 28.5002 46.6379 23.9677 46.6379 18.3766C46.6379 12.7854 42.1054 8.25293 36.5143 8.25293C30.9231 8.25293 26.3906 12.7854 26.3906 18.3766C26.3906 23.9677 30.9231 28.5002 36.5143 28.5002Z"/><path fill="#6E7FED" d="M41.7961 9.73633C42.7415 11.2781 43.2943 13.0818 43.2943 15.0163C43.2943 20.6163 38.7561 25.14 33.1706 25.14C31.2361 25.14 29.4324 24.5872 27.8906 23.6418C29.6652 26.5509 32.8652 28.4854 36.5161 28.4854C42.1161 28.4854 46.6397 23.9472 46.6397 18.3618C46.6397 14.7109 44.7052 11.5254 41.7961 9.73633Z"/><path fill="#E4AC66" d="M19.0027 57.3729L46.1736 63.9911L47.7736 59.8893L16.4863 52.2675L19.0027 57.3729Z"/><path fill="#F09D00" d="M63.6429 51.7588L60.5738 58.7406C59.5847 60.9806 57.1411 62.1879 54.7702 61.6061L47.7738 59.9042L46.1738 64.0061L53.7375 65.8533C54.4647 66.0279 55.2211 66.1297 55.9629 66.1297C59.6866 66.1297 63.0611 63.9188 64.5738 60.5151L67.8756 52.9952L63.6429 51.7588Z"/><path fill="#E4AC66" d="M63.6426 51.7588L67.8753 52.9806L78.9589 27.7588L76.428 22.6533L63.6426 51.7588Z"/><path fill="#002343" d="M55.9321 62.8421C55.4521 62.8421 54.9576 62.7839 54.4776 62.6676L16.1939 53.3294C15.8739 53.2567 15.6121 53.0385 15.4812 52.7476L15.0594 51.8748C14.3612 50.4639 14.2594 48.8785 14.7685 47.3948C15.2776 45.9112 16.3248 44.7185 17.7212 44.0203L69.1103 18.6385C70.5212 17.9403 72.1066 17.8385 73.5903 18.3476C75.0739 18.8567 76.2812 19.9039 76.9648 21.3003L77.4012 22.173C77.5466 22.4639 77.5466 22.7985 77.4157 23.0894L61.5612 59.1621C60.5285 61.4457 58.3176 62.8421 55.9321 62.8421ZM17.1976 51.3221L54.9866 60.5439C56.8485 60.9948 58.7539 60.0494 59.5394 58.3039L75.1903 22.6967L74.9866 22.2894C74.5503 21.4021 73.7939 20.7476 72.863 20.4276C71.9321 20.1076 70.9285 20.1803 70.0557 20.6167L18.6666 45.9694C17.7794 46.4057 17.1248 47.1621 16.8048 48.093C16.4848 49.0239 16.5576 50.0276 16.9939 50.9003L17.1976 51.3221Z"/><path fill="#002343" d="M36.4862 89.7367C36.4135 89.7367 36.3407 89.7367 36.268 89.7076C34.4789 89.3295 32.9807 88.1949 32.1953 86.5804L15.468 52.7476C15.2062 52.2095 15.4244 51.5549 15.9626 51.2931C16.5007 51.0313 17.1553 51.2495 17.4171 51.7876L34.1298 85.6349C34.6244 86.6385 35.5698 87.3513 36.6898 87.5985C37.2862 87.7149 37.6644 88.2967 37.5335 88.8931C37.4462 89.3876 36.9807 89.7367 36.4862 89.7367Z"/><path fill="#002343" d="M4.70428 70.726C4.29701 70.726 3.91883 70.5078 3.72974 70.1151C3.46792 69.5769 3.6861 68.9224 4.22428 68.6606L15.0316 63.3224C15.5697 63.0606 16.2243 63.2788 16.4861 63.8169C16.7479 64.3551 16.5297 65.0097 15.9916 65.2715L5.18428 70.6097C5.02428 70.6969 4.86428 70.726 4.70428 70.726Z"/><path fill="#002343" d="M3.40936 80.2974C3.00209 80.2974 2.62391 80.0793 2.43482 79.6865C2.173 79.1483 2.39118 78.4938 2.92936 78.232L13.7366 72.8938C14.2748 72.632 14.9294 72.8502 15.1912 73.3883C15.453 73.9265 15.2348 74.5811 14.6966 74.8429L3.88936 80.1811C3.72936 80.2683 3.56936 80.2974 3.40936 80.2974Z"/><path fill="#002343" d="M11.7883 85.0972C11.381 85.0972 11.0028 84.8791 10.8137 84.4863C10.5519 83.9482 10.7701 83.2936 11.3083 83.0318L22.1155 77.6936C22.6537 77.4318 23.3083 77.65 23.5701 78.1882C23.8319 78.7263 23.6137 79.3809 23.0755 79.6427L12.2683 84.9809C12.1228 85.0536 11.9483 85.0972 11.7883 85.0972Z"/><path fill="#002343" d="M36.4704 29.5912C30.2886 29.5912 25.2559 24.5585 25.2559 18.3767C25.2559 12.1948 30.2886 7.16211 36.4704 7.16211C42.6522 7.16211 47.6849 12.1948 47.6849 18.3767C47.6849 24.5585 42.6522 29.5912 36.4704 29.5912ZM36.4704 9.32938C31.4813 9.32938 27.4377 13.3876 27.4377 18.3621C27.4377 23.3367 31.4959 27.3948 36.4704 27.3948C41.445 27.3948 45.5031 23.3367 45.5031 18.3621C45.5031 13.3876 41.445 9.32938 36.4704 9.32938Z"/><path fill="#002343" d="M34.5799 22.769C34.3035 22.769 34.0272 22.6672 33.809 22.449L30.9726 19.6127C30.5508 19.1908 30.5508 18.4927 30.9726 18.0708C31.3944 17.649 32.0926 17.649 32.5144 18.0708L34.5799 20.1363L40.4272 14.289C40.849 13.8672 41.5472 13.8672 41.969 14.289C42.3908 14.7108 42.3908 15.409 41.969 15.8308L35.3508 22.449C35.1326 22.6672 34.8562 22.769 34.5799 22.769Z"/><path fill="#002343" d="M93.272 61.4027C93.1702 61.4027 93.0684 61.3881 92.9666 61.3591L63.6866 52.9227C63.1047 52.7482 62.7702 52.1518 62.9447 51.57C63.1047 50.9882 63.7156 50.6536 64.2975 50.8281L92.472 58.9591C92.5302 58.29 92.4138 57.6209 92.1084 57.01L75.4102 23.1482C75.1484 22.61 75.3666 21.9554 75.9047 21.6936C76.4429 21.4318 77.0975 21.65 77.3593 22.1882L94.072 56.0354C94.7993 57.5045 94.872 59.1627 94.2902 60.7045C94.1302 61.1263 93.7229 61.4027 93.272 61.4027Z"/><path fill="#002343" d="M37.489 89.8527C37.0818 89.8527 36.6745 89.809 36.2527 89.7218C35.9327 89.6636 35.6708 89.46 35.5108 89.169C35.3654 88.8927 35.3363 88.5581 35.4527 88.2527L46.7545 59.4963C46.9727 58.9436 47.6127 58.6527 48.1654 58.8854C48.7327 59.1036 49.009 59.7436 48.7763 60.2963L38.0418 87.6272C38.3908 87.569 38.7399 87.4672 39.0599 87.3072L90.449 61.9254C91.2781 61.5181 91.9181 60.8054 92.2527 59.9181C92.4708 59.3509 93.0963 59.0745 93.6636 59.2781C94.2309 59.4963 94.5072 60.1218 94.3036 60.689C93.7799 62.0854 92.7472 63.22 91.4236 63.8745L40.0345 89.2563C39.2345 89.649 38.3763 89.8527 37.489 89.8527Z"/></svg>